# xmcd
#
# Track frame offsets:
# 150
# 15501
# 35158
# 49563
# 61126
# 77653
# 90173
# 108643
# 128083
# 144310
# 158052
# 174728
# 198268
# 219786
# 234256
# 262139
#
# Disc length: 3907 seconds
#
# Revision: 1
# Processed by: cddbd v1.5.2PL0 Copyright (c) Steve Scherf et al.
# Submitted via: CedeCatalogueitor 2.6.0.6 http://personales.ya.com/cdcatalogueitor
#
DISCID=c90f4110
DTITLE=Varios Artistas - Suau: 5º Aniversario
DYEAR=1900
DGENRE=
TTITLE0=Nouvelle Vague: Marian
TTITLE1=Luftkastellet: Cantoma Etoile
TTITLE2=Silvia Torres: Take Saravá
TTITLE3=Tosca: Fuck Dub
TTITLE4=Ive Mendes: Nao Vou Fugir
TTITLE5=Sole: My Singing Soul
TTITLE6=Arto Lindsay: Personagem
TTITLE7=The Go Find: Summer Question
TTITLE8=Chromeo: Ah Oui Comme ça
TTITLE9=Djsos Krost: Better Place
TTITLE10=Metro Area: Dance Peaction
TTITLE11=And. Ypsilon (Tiefschwarz Is High Mix): The Sky Is High
TTITLE12=Scissor Sisters: Confortably Numb
TTITLE13=The Movies: If You Leave Now
TTITLE14=Louie Vega and Jay "Sinister" Sealee: Diamon Life
TTITLE15=Dj. Ino Ft. Yoio: It's Around
EXTD=
EXTT0=
EXTT1=
EXTT2=
EXTT3=
EXTT4=
EXTT5=
EXTT6=
EXTT7=
EXTT8=
EXTT9=
EXTT10=
EXTT11=
EXTT12=
EXTT13=
EXTT14=
EXTT15=
PLAYORDER=
